<svg color="#3500ffa3" xmlns="http://www.w3.org/2000/svg" xmlns:svgjs="http://svgjs.com/svgjs" xmlns:xlink="http://www.w3.org/1999/xlink" class="animated" id="freepik_stories-sleep-analysis" viewBox="0 0 500 500" version="1.1">
   <style>svg#freepik_stories-sleep-analysis:not(.animated) .animable {opacity: 0;}svg#freepik_stories-sleep-analysis.animated #freepik--background-simple--inject-179 {animation: 1s 1 forwards cubic-bezier(.36,-0.01,.5,1.38) zoomOut;animation-delay: 0s;}svg#freepik_stories-sleep-analysis.animated #freepik--Frame--inject-179 {animation: 1s 1 forwards cubic-bezier(.36,-0.01,.5,1.38) slideUp;animation-delay: 0s;}svg#freepik_stories-sleep-analysis.animated #freepik--Bed--inject-179 {animation: 1s 1 forwards cubic-bezier(.36,-0.01,.5,1.38) lightSpeedRight;animation-delay: 0s;}svg#freepik_stories-sleep-analysis.animated #freepik--Lamp--inject-179 {animation: 1s 1 forwards cubic-bezier(.36,-0.01,.5,1.38) slideUp;animation-delay: 0s;}svg#freepik_stories-sleep-analysis.animated #freepik--Device--inject-179 {animation: 1s 1 forwards cubic-bezier(.36,-0.01,.5,1.38) slideUp;animation-delay: 0s;}svg#freepik_stories-sleep-analysis.animated #freepik--Ground--inject-179 {animation: 1s 1 forwards cubic-bezier(.36,-0.01,.5,1.38) fadeIn;animation-delay: 0s;}            @keyframes zoomOut {                0% {                    opacity: 0;                    transform: scale(1.5);                }                100% {                    opacity: 1;                    transform: scale(1);                }            }                    @keyframes slideUp {                0% {                    opacity: 0;                    transform: translateY(30px);                }                100% {                    opacity: 1;                    transform: inherit;                }            }                    @keyframes lightSpeedRight {              from {                transform: translate3d(50%, 0, 0) skewX(-20deg);                opacity: 0;              }              60% {                transform: skewX(10deg);                opacity: 1;              }              80% {                transform: skewX(-2deg);              }              to {                opacity: 1;                transform: translate3d(0, 0, 0);              }            }                    @keyframes fadeIn {                0% {                    opacity: 0;                }                100% {                    opacity: 1;                }            }        .animator-hidden { display: none; }</style>
   <g id="freepik--background-simple--inject-179" class="animable" style="transform-origin: 250.764px 246.919px;">
      <path d="M450.6,265.14c2.07-27.54-4.34-56.32-12.92-82C424.93,145.09,400.17,106,358.48,97c-24-5.2-48.5.37-69.11,13.39-19.82,12.53-35.28,28.71-59.64,31.85-24.65,3.17-49.94,1.89-74.72,1.89-63.7,0-115.4,66.93-102.48,136.64s73.86,118,125.56,118c46.45,0,84.67-27.87,128.8-35.36,21.88-3.71,43.85.68,65.51-4.88,25.16-6.46,48.83-21.88,62.77-44.21C444.68,299.16,449.3,282.39,450.6,265.14Z" style="fill: currentColor; transform-origin: 250.764px 246.919px;" id="elqrmdi1cpfwc" class="animable" />
      <g id="elajnois09y08">
         <path d="M450.6,265.14c2.07-27.54-4.34-56.32-12.92-82C424.93,145.09,400.17,106,358.48,97c-24-5.2-48.5.37-69.11,13.39-19.82,12.53-35.28,28.71-59.64,31.85-24.65,3.17-49.94,1.89-74.72,1.89-63.7,0-115.4,66.93-102.48,136.64s73.86,118,125.56,118c46.45,0,84.67-27.87,128.8-35.36,21.88-3.71,43.85.68,65.51-4.88,25.16-6.46,48.83-21.88,62.77-44.21C444.68,299.16,449.3,282.39,450.6,265.14Z" style="fill: rgb(255, 255, 255); opacity: 0.7; transform-origin: 250.764px 246.919px;" class="animable" id="el7hh0i2jpmx" />
      </g>
   </g>
   <g id="freepik--Frame--inject-179" class="animable" style="transform-origin: 146.24px 267px;">
      <line x1="197.67" y1="142" x2="197.67" y2="392" style="fill: none; stroke: rgb(38, 50, 56); stroke-linecap: round; stroke-linejoin: round; transform-origin: 197.67px 267px;" id="elhu9y53pidpm" class="animable" />
      <rect x="94.81" y="168.67" width="77.7" height="66.67" style="fill: rgb(38, 50, 56); stroke: rgb(38, 50, 56); stroke-linecap: round; stroke-linejoin: round; transform-origin: 133.66px 202.005px;" id="elbjuljf1kkdf" class="animable" />
      <rect x="98.7" y="172" width="69.93" height="60" style="fill: rgb(255, 255, 255); stroke: rgb(38, 50, 56); stroke-linecap: round; stroke-linejoin: round; transform-origin: 133.665px 202px;" id="elnqqkhxkdih" class="animable" />
      <path d="M168.63,190.19c-12.57,8.95-30.59,14.88-51.49,24.21a86,86,0,0,0-18.44,11V232h69.93Z" style="fill: currentColor; stroke: rgb(38, 50, 56); stroke-linecap: round; stroke-linejoin: round; transform-origin: 133.665px 211.095px;" id="elr3w3j80ljv8" class="animable" />
      <path d="M168.63,172H140.57c-3.12,2.67-6.82,5.66-11.18,8.86-16,11.71-9,23.42,10.12,14.91,9.83-4.38,20.79-14.49,29.12-23.31Z" style="fill: currentColor; stroke: rgb(38, 50, 56); stroke-linecap: round; stroke-linejoin: round; transform-origin: 144.573px 185.341px;" id="elx42x01qw3ne" class="animable" />
      <path d="M110.75,178.73c0-4.89-6.08-1.06-12,3.87V195C104.54,189.25,110.75,183.1,110.75,178.73Z" style="fill: currentColor; stroke: rgb(38, 50, 56); stroke-linecap: round; stroke-linejoin: round; transform-origin: 104.75px 185.732px;" id="elfwxdqgbvh9p" class="animable" />
      <g id="ellw8vsy63bho">
         <circle cx="149.09" cy="216" r="7.45" style="fill: rgb(255, 255, 255); stroke: rgb(38, 50, 56); stroke-linecap: round; stroke-linejoin: round; transform-origin: 149.09px 216px; transform: rotate(-76.32deg);" class="animable" id="el5hw2axq9nya" />
      </g>
      <path d="M116.61,198.16a5.59,5.59,0,1,1-5.59-5.59A5.59,5.59,0,0,1,116.61,198.16Z" style="fill: currentColor; stroke: rgb(38, 50, 56); stroke-linecap: round; stroke-linejoin: round; transform-origin: 111.02px 198.16px;" id="el2vxcidpwljh" class="animable" />
   </g>
   <g id="freepik--Bed--inject-179" class="animable" style="transform-origin: 269.506px 331.79px;">
      <path d="M110,278.67V389.33h64.33V278.67Zm6.24,19.45v-9.56h3.44v9.56Zm5.86,0v-9.56h3.55v9.56Zm6,0v-9.56h3v9.56Zm5.4,0v-9.56h3v9.56Zm5.4,0v-9.56h3v9.56Zm5.41,0v-9.56h3v9.56Zm5.4,0v-9.56h3v9.56Zm5.41,0v-9.56h3v9.56Zm5.4,0v-9.56h3v9.56Zm7.6,0h-2.2v-9.56h2.2Z" style="fill: rgb(255, 255, 255); stroke: rgb(38, 50, 56); stroke-linecap: round; stroke-linejoin: round; transform-origin: 142.165px 334px;" id="elnjprymt94c9" class="animable" />
      <rect x="110" y="273.25" width="3.56" height="116.08" style="fill: rgb(255, 255, 255); stroke: rgb(38, 50, 56); stroke-linecap: round; stroke-linejoin: round; transform-origin: 111.78px 331.29px;" id="elxpiybgde7i" class="animable" />
      <rect x="170.77" y="273.25" width="3.56" height="116.08" style="fill: rgb(255, 255, 255); stroke: rgb(38, 50, 56); stroke-linecap: round; stroke-linejoin: round; transform-origin: 172.55px 331.29px;" id="elq9ly0hgx0cn" class="animable" />
      <path d="M152.79,302.19s-3.64-1-11.68,2.1-12.24,13.2-12.82,14.35-3.63,4-2.68,5.36,3.45,1,3.45,1h50.51S172.69,300.85,152.79,302.19Z" style="fill: rgb(255, 255, 255); stroke: rgb(38, 50, 56); stroke-linecap: round; stroke-linejoin: round; transform-origin: 152.499px 313.54px;" id="el51lyk23nriq" class="animable" />
      <path d="M178.61,299.29s4.44,2,6.86,3.23,4,1.82,2.83-1.62-5.24-9.07-3.42-10.89S223,294.24,223,294.24v31.7H167.7l1.42-21s3.43,1.41,5.65-.81A30.42,30.42,0,0,0,178.61,299.29Z" style="fill: rgb(255, 255, 255); stroke: rgb(38, 50, 56); stroke-linecap: round; stroke-linejoin: round; transform-origin: 195.35px 307.804px;" id="el2vyegrae1t7" class="animable" />
      <polygon points="190.31 310 194.97 314.65 183.91 319.31 197.88 324.94 204.09 324.94 204.09 292.15 184.3 292.54 186.82 300.88 190.31 310" style="fill: currentColor; stroke: rgb(38, 50, 56); stroke-linecap: round; stroke-linejoin: round; transform-origin: 194px 308.545px;" id="elt65sn6mv9oa" class="animable" />
      <path d="M156.41,312s.62,8.88,1.24,11.71,3.1,3,7.23,2.42,24.58-2.42,26.64-3.23-21.48-9.49-24.37-10.3S156,308.78,156.41,312Z" style="fill: currentColor; stroke: rgb(38, 50, 56); stroke-linecap: round; stroke-linejoin: round; transform-origin: 174.021px 318.472px;" id="elp4zwqql1p3r" class="animable" />
      <path d="M155.79,305.14s.2,2.83-.6,3-1.62-4.84-1.62-4.84-1.41,5.65-4.64,5.45-3-11.91,2-18,10.29-8.08,13.93-6.46,5.65,5.85,5.65,5.85a32.57,32.57,0,0,1,2.22,5.05c.2,1.21-3,.61-6.26,1.21s-3.83-.4-5.65,2.22S155.79,305.14,155.79,305.14Z" style="fill: rgb(38, 50, 56); stroke: rgb(38, 50, 56); stroke-linecap: round; stroke-linejoin: round; transform-origin: 159.763px 296.253px;" id="elxy5apj00wq" class="animable" />
      <path d="M155.79,305.14a28.42,28.42,0,0,0,12.92,7.27c8.08,2,14.38-2.14,13.73-6.06-1.21-7.26-7.67-12.51-7.67-12.51a5.62,5.62,0,0,0-2-4.24c-2-1.41-4-1.41-4.24.2a21.51,21.51,0,0,0-.2,2.22l2.83,1.62-.81.6a21.33,21.33,0,0,0-3.84-.6c-1.41,0-1.21,1.41-2.82,1.41s-2.63-3.63-3.23-1.82S155.79,305.14,155.79,305.14Z" style="fill: rgb(255, 255, 255); stroke: rgb(38, 50, 56); stroke-linecap: round; stroke-linejoin: round; transform-origin: 169.138px 300.748px;" id="elnq842jddr0m" class="animable" />
      <path d="M159,308s2.42-8.08,4.85-11.91,7.47,0,7.67,2.62-2.63,3.64-4,5.45.2,4.85-.4,6.26S161.65,314.23,159,308Z" style="fill: rgb(38, 50, 56); transform-origin: 165.265px 303.273px;" id="elvqx86q35f6r" class="animable" />
      <polyline points="166.29 305.75 169.12 308.58 170.33 307.36" style="fill: none; stroke: rgb(38, 50, 56); stroke-linecap: round; stroke-linejoin: round; transform-origin: 168.31px 307.165px;" id="eljo28joejocl" class="animable" />
      <path d="M200,315.64s-11.51-1.21-20-2.42-17-4.85-21-5.25-3.63,1.82-4.44,4.44.4,5,1.21,5,.41.81.81,0,.61-5.45.61-5.45a49.6,49.6,0,0,0,5,1.61,8.17,8.17,0,0,0,4.24,0s25.24,13.13,30.08,13.53,4.85-3.63,4.44-6.06S200,315.64,200,315.64Z" style="fill: rgb(255, 255, 255); stroke: rgb(38, 50, 56); stroke-linecap: round; stroke-linejoin: round; transform-origin: 177.702px 317.525px;" id="el92ual4fx2l" class="animable" />
      <polygon points="177.31 310.76 173.88 320.37 189.89 326.32 200.65 326.32 200.65 314.19 177.31 310.76" style="fill: currentColor; stroke: rgb(38, 50, 56); stroke-linecap: round; stroke-linejoin: round; transform-origin: 187.265px 318.54px;" id="el0iv0xeh40eqe" class="animable" />
      <path d="M202.33,285.33s-20.66,1.34-19.33,6,18,13,21.67,13S202.33,285.33,202.33,285.33Z" style="fill: currentColor; stroke: rgb(38, 50, 56); stroke-linecap: round; stroke-linejoin: round; transform-origin: 194.398px 294.83px;" id="elev31dq4tgda" class="animable" />
      <path d="M169.55,315.62a7.52,7.52,0,0,0-6.4,4.47" style="fill: none; stroke: rgb(38, 50, 56); stroke-linecap: round; stroke-linejoin: round; transform-origin: 166.35px 317.855px;" id="el2scs6qfv5ua" class="animable" />
      <polygon points="181.97 299.52 187.01 310.58 194 311.74 187.01 300.1 181.97 299.52" style="fill: currentColor; stroke: rgb(38, 50, 56); stroke-linecap: round; stroke-linejoin: round; transform-origin: 187.985px 305.63px;" id="el1vj5emtss6u" class="animable" />
      <path d="M216,283s29.67,5.33,36.33,5.33,15.34-3,40.34.34,38,18.66,41.33,20.33,21,1.33,31.67,4S386,328.33,386,328.33H213Z" style="fill: currentColor; stroke: rgb(38, 50, 56); stroke-linecap: round; stroke-linejoin: round; transform-origin: 299.5px 305.665px;" id="elmo5xk72fktm" class="animable" />
      <path d="M253.33,307s11,17.33,23,20" style="fill: none; stroke: rgb(38, 50, 56); stroke-linecap: round; stroke-linejoin: round; transform-origin: 264.83px 317px;" id="el5w2gov7z0li" class="animable" />
      <path d="M249.33,309s7,7.33,12.67,11" style="fill: none; stroke: rgb(38, 50, 56); stroke-linecap: round; stroke-linejoin: round; transform-origin: 255.665px 314.5px;" id="elw01culm12d" class="animable" />
      <path d="M207.5,280.69s-9.67,1-9.67,3.67-4,8.95-1.26,42.79c.11,1.38,20.9,1.75,20.83,0-1.72-41.69,4.77-43.46,3.43-45.12S207.5,280.69,207.5,280.69Z" style="fill: rgb(255, 255, 255); stroke: rgb(38, 50, 56); stroke-linecap: round; stroke-linejoin: round; transform-origin: 208.312px 304.497px;" id="el46cgc06ynkz" class="animable" />
      <path d="M424.33,390.33l-307.83-1v-60a4.5,4.5,0,0,1,4.5-4.5H416a4.5,4.5,0,0,1,4.5,4.5Z" style="fill: rgb(255, 255, 255); transform-origin: 270.415px 357.58px;" id="el5owcvgkezoa" class="animable" />
      <g style="clip-path: url(&quot;#freepik--clip-path--inject-179&quot;); transform-origin: 270.415px 357.58px;" id="elcxbfur4lx4c" class="animable">
         <g id="ele6jqwgbpklt">
            <path d="M424.33,390.33l-307.83-1v-60a4.5,4.5,0,0,1,4.5-4.5H416a4.5,4.5,0,0,1,4.5,4.5Z" style="stroke: rgb(38, 50, 56); stroke-linecap: round; stroke-linejoin: round; opacity: 0.36; transform-origin: 270.415px 357.58px;" class="animable" id="elxvnbkk1dcae" />
         </g>
      </g>
      <path d="M424.33,390.33l-307.83-1v-60a4.5,4.5,0,0,1,4.5-4.5H416a4.5,4.5,0,0,1,4.5,4.5Z" style="fill: none; stroke: rgb(38, 50, 56); stroke-linecap: round; stroke-linejoin: round; transform-origin: 270.415px 357.58px;" id="elgmttzd2hgw" class="animable" />
      <path d="M416,324.83H183.85v64.72l240.48.78-3.83-61A4.5,4.5,0,0,0,416,324.83Z" style="fill: currentColor; stroke: rgb(38, 50, 56); stroke-linecap: round; stroke-linejoin: round; transform-origin: 304.09px 357.58px;" id="elarmqhh6mers" class="animable" />
      <path d="M419.53,334.24l9.48,55a1,1,0,0,1-1,1.07h-7.94Z" style="fill: rgb(38, 50, 56); stroke: rgb(38, 50, 56); stroke-linecap: round; stroke-linejoin: round; transform-origin: 424.271px 362.275px;" id="ellvsduwyqm1" class="animable" />
      <path d="M416,324.83H330.92a4.25,4.25,0,0,0-4.25,4.25l-4.34,60.25,102,1-3.83-61A4.5,4.5,0,0,0,416,324.83Z" style="fill: currentColor; stroke: rgb(38, 50, 56); stroke-linecap: round; stroke-linejoin: round; transform-origin: 373.33px 357.58px;" id="elg9c0iznybgs" class="animable" />
      <polygon points="258.48 389.64 263.02 330.6 255.36 389.36 258.48 389.64" style="fill: rgb(38, 50, 56); transform-origin: 259.19px 360.12px;" id="el5havri7v9pj" class="animable" />
      <polygon points="413.81 389.64 418.35 330.6 410.69 389.36 413.81 389.64" style="fill: rgb(38, 50, 56); transform-origin: 414.52px 360.12px;" id="elh3f1lx7ka2j" class="animable" />
      <polygon points="270.83 389.64 267.7 330.6 267.68 389.36 270.83 389.64" style="fill: rgb(38, 50, 56); transform-origin: 269.255px 360.12px;" id="el5z0n6t81u29" class="animable" />
      <polygon points="338.33 389.64 335.2 330.6 335.18 389.36 338.33 389.64" style="fill: rgb(38, 50, 56); transform-origin: 336.755px 360.12px;" id="el40tsre4ksgv" class="animable" />
      <polygon points="208.09 389.64 212.63 330.6 204.96 389.36 208.09 389.64" style="fill: rgb(38, 50, 56); transform-origin: 208.795px 360.12px;" id="eldtgk0mi43jv" class="animable" />
      <polygon points="220.44 389.64 217.3 330.6 217.28 389.36 220.44 389.64" style="fill: rgb(38, 50, 56); transform-origin: 218.86px 360.12px;" id="elk1y5a3c9phq" class="animable" />
      <path d="M178.88,324.41c-1.6,0-4.31,1.23-4.61,2.8-1.58,8.49.23,28.33.23,37.62a215.53,215.53,0,0,1-1.75,24.5l24.53,0s-.62-37.85-1.28-50c-.61-11.23,4.91-14.49,4.91-14.49Z" style="fill: rgb(255, 255, 255); stroke: rgb(38, 50, 56); stroke-linecap: round; stroke-linejoin: round; transform-origin: 186.83px 356.87px;" id="elkbirkzbz27b" class="animable" />
   </g>
   <g id="freepik--Lamp--inject-179" class="animable" style="transform-origin: 120.665px 321.33px;">
      <path d="M126.7,313l-7.09-13.84V279.83h-6.79v19.36L105.73,313a2.43,2.43,0,0,0,2.17,3.55h16.63A2.44,2.44,0,0,0,126.7,313Z" style="fill: currentColor; stroke: rgb(38, 50, 56); stroke-linecap: round; stroke-linejoin: round; transform-origin: 116.212px 298.19px;" id="elihwlp27xf7e" class="animable" />
      <polygon points="133.96 283.83 98.46 283.83 107.34 253.33 125.09 253.33 133.96 283.83" style="fill: rgb(38, 50, 56); stroke: rgb(38, 50, 56); stroke-linecap: round; stroke-linejoin: round; transform-origin: 116.21px 268.58px;" id="elemcrof16bw6" class="animable" />
      <rect x="95" y="316" width="51.33" height="73.33" style="fill: rgb(38, 50, 56); stroke: rgb(38, 50, 56); stroke-linecap: round; stroke-linejoin: round; transform-origin: 120.665px 352.665px;" id="elstoa12mugeo" class="animable" />
      <rect x="122" y="316" width="24.33" height="73.33" style="fill: rgb(255, 255, 255); stroke: rgb(38, 50, 56); stroke-linecap: round; stroke-linejoin: round; transform-origin: 134.165px 352.665px;" id="ellssjlaoeulo" class="animable" />
      <rect x="123.33" y="321" width="21.67" height="15.67" style="fill: rgb(255, 255, 255); stroke: rgb(38, 50, 56); stroke-linecap: round; stroke-linejoin: round; transform-origin: 134.165px 328.835px;" id="elqnhnp488xlj" class="animable" />
      <rect x="128.67" y="327.33" width="11" height="3" style="fill: rgb(38, 50, 56); stroke: rgb(38, 50, 56); stroke-linecap: round; stroke-linejoin: round; transform-origin: 134.17px 328.83px;" id="el1r5v5s5z359" class="animable" />
      <rect x="123.33" y="342.5" width="21.67" height="15.67" style="fill: rgb(255, 255, 255); stroke: rgb(38, 50, 56); stroke-linecap: round; stroke-linejoin: round; transform-origin: 134.165px 350.335px;" id="eliiyy63l859i" class="animable" />
      <rect x="128.67" y="348.83" width="11" height="3" style="fill: rgb(38, 50, 56); stroke: rgb(38, 50, 56); stroke-linecap: round; stroke-linejoin: round; transform-origin: 134.17px 350.33px;" id="elun9jc9woj6" class="animable" />
      <rect x="123.33" y="364" width="21.67" height="15.67" style="fill: rgb(255, 255, 255); stroke: rgb(38, 50, 56); stroke-linecap: round; stroke-linejoin: round; transform-origin: 134.165px 371.835px;" id="elrwnqnsyp7v" class="animable" />
      <rect x="128.67" y="370.33" width="11" height="3" style="fill: rgb(38, 50, 56); stroke: rgb(38, 50, 56); stroke-linecap: round; stroke-linejoin: round; transform-origin: 134.17px 371.83px;" id="elyfilmc8c5b9" class="animable" />
   </g>
   <g id="freepik--Device--inject-179" class="animable" style="transform-origin: 323.85px 202.345px;">
      <text xmlns="http://www.w3.org/2000/svg" fill="currentColor" style="font-family: 'Roboto', sans-serif;transform: translate3d(215px, 210px,0) scale(3);color: currentColor">Bedtime</text>
      
      <text xmlns="http://www.w3.org/2000/svg" fill="currentColor" style="font-family: 'Roboto', sans-serif;transform: translate3d(215px, 260px,0) scale(3);color: currentColor">Calculator</text>
   </g>
   <g id="freepik--Ground--inject-179" class="animable" style="transform-origin: 255.67px 391.67px;">
      <rect x="65.67" y="388.67" width="380" height="6" style="fill: rgb(38, 50, 56); transform-origin: 255.67px 391.67px;" id="el3hxpzjoa6xk" class="animable" />
   </g>
   <defs>
      <filter id="active" height="200%">
         <feMorphology in="SourceAlpha" result="DILATED" operator="dilate" radius="2" />
         <feFlood flood-color="#32DFEC" flood-opacity="1" result="PINK" />
         <feComposite in="PINK" in2="DILATED" operator="in" result="OUTLINE" />
         <feMerge>
            <feMergeNode in="OUTLINE" />
            <feMergeNode in="SourceGraphic" />
         </feMerge>
      </filter>
      <filter id="hover" height="200%">
         <feMorphology in="SourceAlpha" result="DILATED" operator="dilate" radius="2" />
         <feFlood flood-color="#ff0000" flood-opacity="0.5" result="PINK" />
         <feComposite in="PINK" in2="DILATED" operator="in" result="OUTLINE" />
         <feMerge>
            <feMergeNode in="OUTLINE" />
            <feMergeNode in="SourceGraphic" />
         </feMerge>
         <feColorMatrix type="matrix" values="0   0   0   0   0                0   1   0   0   0                0   0   0   0   0                0   0   0   1   0 " />
      </filter>
   </defs>
   <defs>
      <clipPath id="freepik--clip-path--inject-179">
         <path d="M424.33,390.33l-307.83-1v-60a4.5,4.5,0,0,1,4.5-4.5H416a4.5,4.5,0,0,1,4.5,4.5Z" style="fill:#fff;stroke:currentColor;stroke-linecap:round;stroke-linejoin:round" />
      </clipPath>
   </defs>
</svg>